# tipo: objeto3d
# cor: black
o cubo
v -136.60254037844388 -68.30127018922195 -81.69872981077808
v 36.602540378443884 -18.301270189221952 -168.30127018922195
v 36.602540378443884 154.9038105676658 -68.30127018922195
v -136.60254037844388 104.90381056766581 18.30127018922191
v -36.602540378443884 -154.9038105676658 68.30127018922195
v 136.60254037844388 -104.90381056766581 -18.30127018922191
v 136.60254037844388 68.30127018922195 81.69872981077808
v -36.602540378443884 18.301270189221952 168.30127018922195
l 1 2
l 2 3
l 3 4
l 4 1
l 5 6
l 6 7
l 7 8
l 8 5
l 1 5
l 2 6
l 3 7
l 4 8
